<?xml version="1.0" encoding="utf-8"?>
<!-- Generator: Adobe Illustrator 15.1.0, SVG Export Plug-In  -->
<!DOCTYPE svg PUBLIC "-//W3C//DTD SVG 1.1//EN" "http://www.w3.org/Graphics/SVG/1.1/DTD/svg11.dtd" [
	<!ENTITY ns_flows "http://ns.adobe.com/Flows/1.0/">
]>
<svg version="1.1"
	 xmlns="http://www.w3.org/2000/svg" xmlns:xlink="http://www.w3.org/1999/xlink" xmlns:a="http://ns.adobe.com/AdobeSVGViewerExtensions/3.0/"
	 x="0px" y="0px" width="321px" height="45px" viewBox="-0.259 -0.231 321 45" enable-background="new -0.259 -0.231 321 45"
	 xml:space="preserve">
<defs>
</defs>
<path d="M109.022,2.688l-2.485,4.987c-1.343-1.346-3.51-2.017-6.49-2.017c-2.83,0-5.15,1.185-6.958,3.557
	c-1.81,2.375-2.714,5.379-2.714,9.012c0,3.633,0.839,6.517,2.515,8.65c0.072,0.091,0.223,0.271,0.223,0.271l-4.02,7.708l6.586-5.549
	c0,0,0,0,0.976,0.306c0.909,0.286,1.885,0.465,2.949,0.465c3.202,0,5.708-1.145,7.516-3.432l2.806,4.87
	c-2.458,2.614-6.062,3.92-10.806,3.92c-1.676,0-3.219-0.195-4.632-0.582c-0.166-0.047-0.491-0.148-0.491-0.148L81.435,44.854
	l6.266-14.559c0,0-0.344-0.427-0.656-0.898c-1.955-2.962-2.933-6.77-2.933-11.425c0-5.024,1.457-9.227,4.374-12.606
	C91.396,1.988,95.128,0.3,99.675,0.3C103.57,0.3,106.686,1.096,109.022,2.688z"/>
<path d="M0,18.435c0-2.919,0.843-5.295,2.529-7.13c1.685-1.834,3.91-2.752,6.674-2.752c2.906,0,5.165,0.883,6.772,2.645
	c1.608,1.763,2.412,4.176,2.412,7.238c0,3.049-0.818,5.474-2.456,7.272c-1.638,1.799-3.881,2.698-6.728,2.698
	c-2.907,0-5.167-0.909-6.781-2.725C0.808,23.864,0,21.449,0,18.435z M4.646,18.435c0,4.217,1.52,6.325,4.557,6.325
	c1.395,0,2.499-0.546,3.313-1.644c0.816-1.097,1.225-2.657,1.225-4.682c0-4.158-1.513-6.237-4.538-6.237
	c-1.394,0-2.501,0.548-3.324,1.643C5.057,14.939,4.646,16.469,4.646,18.435z"/>
<path d="M26.039,27.566v7.988h-4.467V8.91h4.467v1.286c1.119-1.095,2.494-1.644,4.128-1.644c6.1,0,9.149,3.361,9.149,10.08
	c0,3.133-0.843,5.546-2.527,7.237c-1.688,1.691-3.989,2.537-6.908,2.537C28.475,28.406,27.194,28.125,26.039,27.566z M26.039,13.592
	v10.06c0.81,0.657,1.757,0.983,2.843,0.983c2.06,0,3.54-0.49,4.44-1.475c0.899-0.981,1.348-2.534,1.348-4.654
	c0-2.264-0.446-3.857-1.34-4.781c-0.894-0.923-2.371-1.385-4.432-1.385C27.827,12.341,26.872,12.759,26.039,13.592z"/>
<path d="M60.077,19.847h-13.67c0.084,1.525,0.608,2.711,1.573,3.557c0.965,0.845,2.264,1.267,3.896,1.267
	c2.037,0,3.585-0.529,4.646-1.589l1.733,3.414c-1.573,1.275-3.92,1.911-7.04,1.911c-2.919,0-5.226-0.855-6.925-2.565
	c-1.696-1.708-2.546-4.094-2.546-7.155c0-3.015,0.932-5.457,2.795-7.328c1.865-1.87,4.102-2.806,6.71-2.806
	c2.776,0,5.004,0.829,6.684,2.484c1.681,1.656,2.519,3.765,2.519,6.326C60.452,17.911,60.329,18.738,60.077,19.847z M46.568,16.487
	h9.399c-0.31-2.799-1.858-4.198-4.646-4.198C48.772,12.289,47.188,13.688,46.568,16.487z"/>
<path d="M76.003,28.049V16.987c0-1.631-0.312-2.823-0.938-3.574c-0.625-0.75-1.647-1.124-3.065-1.124
	c-0.654,0-1.354,0.184-2.098,0.552c-0.745,0.37-1.327,0.828-1.744,1.376v13.832h-4.466V8.91h3.217l0.821,1.788
	c1.215-1.43,3.008-2.146,5.378-2.146c2.275,0,4.072,0.682,5.387,2.047c1.317,1.363,1.976,3.267,1.976,5.709v11.741H76.003z"/>
<path d="M109.279,18.435c0-2.919,0.842-5.295,2.528-7.13c1.687-1.834,3.912-2.752,6.675-2.752c2.907,0,5.165,0.883,6.773,2.645
	c1.608,1.763,2.413,4.176,2.413,7.238c0,3.049-0.82,5.474-2.458,7.272s-3.881,2.698-6.728,2.698c-2.907,0-5.167-0.909-6.782-2.725
	C110.087,23.864,109.279,21.449,109.279,18.435z M113.927,18.435c0,4.217,1.518,6.325,4.556,6.325c1.395,0,2.5-0.546,3.315-1.644
	c0.815-1.097,1.225-2.657,1.225-4.682c0-4.158-1.514-6.237-4.54-6.237c-1.393,0-2.502,0.548-3.323,1.643
	C114.336,14.939,113.927,16.469,113.927,18.435z"/>
<path d="M153.202,28.049V16.057c0-2.512-1.125-3.768-3.378-3.768c-0.666,0-1.31,0.194-1.927,0.588
	c-0.62,0.393-1.057,0.847-1.305,1.357v13.814h-4.469V15.36c0-0.939-0.292-1.688-0.874-2.242c-0.585-0.554-1.405-0.83-2.466-0.83
	c-0.561,0-1.17,0.207-1.832,0.624c-0.661,0.417-1.141,0.875-1.438,1.375v13.76h-4.469V8.91h3.072l0.913,1.68
	c1.239-1.358,2.842-2.038,4.806-2.038c2.54,0,4.451,0.692,5.737,2.074c0.562-0.632,1.339-1.135,2.34-1.511
	c1.001-0.373,2.002-0.563,3.003-0.563c2.132,0,3.792,0.612,4.978,1.832c1.185,1.222,1.778,2.898,1.778,5.031v12.634H153.202z"/>
<path d="M184.257,28.049V16.057c0-2.512-1.125-3.768-3.377-3.768c-0.668,0-1.311,0.194-1.931,0.588
	c-0.617,0.393-1.054,0.847-1.305,1.357v13.814h-4.465V15.36c0-0.939-0.294-1.688-0.877-2.242c-0.583-0.554-1.406-0.83-2.467-0.83
	c-0.561,0-1.169,0.207-1.831,0.624c-0.661,0.417-1.14,0.875-1.438,1.375v13.76h-4.468V8.91h3.074l0.911,1.68
	c1.24-1.358,2.841-2.038,4.807-2.038c2.539,0,4.448,0.692,5.737,2.074c0.559-0.632,1.343-1.135,2.341-1.511
	c1.001-0.373,2.003-0.563,3.001-0.563c2.132,0,3.79,0.612,4.976,1.832c1.187,1.222,1.778,2.898,1.778,5.031v12.634H184.257z"/>
<path d="M210.363,19.847h-13.672c0.083,1.525,0.609,2.711,1.574,3.557c0.965,0.845,2.264,1.267,3.896,1.267
	c2.037,0,3.586-0.529,4.646-1.589l1.732,3.414c-1.571,1.275-3.918,1.911-7.038,1.911c-2.919,0-5.227-0.855-6.924-2.565
	c-1.699-1.708-2.548-4.094-2.548-7.155c0-3.015,0.933-5.457,2.796-7.328c1.864-1.87,4.103-2.806,6.709-2.806
	c2.776,0,5.003,0.829,6.685,2.484c1.679,1.656,2.519,3.765,2.519,6.326C210.737,17.911,210.611,18.738,210.363,19.847z
	 M196.854,16.487h9.396c-0.308-2.799-1.857-4.198-4.646-4.198C199.055,12.289,197.473,13.688,196.854,16.487z"/>
<path d="M226.29,28.049V16.987c0-1.631-0.313-2.823-0.939-3.574c-0.626-0.75-1.646-1.124-3.066-1.124
	c-0.653,0-1.354,0.184-2.097,0.552c-0.745,0.37-1.326,0.828-1.741,1.376v13.832h-4.474V8.91h3.218l0.825,1.788
	c1.214-1.43,3.007-2.146,5.38-2.146c2.274,0,4.068,0.682,5.384,2.047c1.319,1.363,1.977,3.267,1.977,5.709v11.741H226.29z"/>
<path d="M235.517,12.502H233.3V8.91h2.217V5.015l4.463-1.644v5.54h5.257v3.592h-5.257v8.38c0,1.371,0.216,2.337,0.644,2.904
	c0.431,0.565,1.183,0.849,2.255,0.849c1.074,0,2.072-0.292,3.003-0.876v4.111c-1.039,0.357-2.515,0.536-4.435,0.536
	c-1.904,0-3.371-0.539-4.396-1.616c-1.023-1.079-1.534-2.612-1.534-4.603V12.502z"/>
<path d="M248.098,26.816l1.593-3.556c1.334,1.061,2.842,1.59,4.521,1.59c1.739,0,2.607-0.619,2.607-1.859
	c0-0.726-0.263-1.322-0.785-1.787c-0.524-0.464-1.543-1.012-3.055-1.644c-3.3-1.37-4.951-3.289-4.951-5.754
	c0-1.654,0.632-2.945,1.896-3.869c1.262-0.922,2.875-1.385,4.842-1.385c1.992,0,3.861,0.447,5.611,1.341l-1.288,3.466
	c-0.975-0.833-2.331-1.251-4.072-1.251c-1.561,0-2.343,0.62-2.343,1.859c0,0.489,0.258,0.929,0.771,1.322
	c0.511,0.393,1.605,0.921,3.286,1.581c1.682,0.664,2.892,1.464,3.628,2.405c0.737,0.941,1.106,2.079,1.106,3.413
	c0,1.775-0.657,3.171-1.972,4.189c-1.317,1.02-3.107,1.528-5.371,1.528c-1.275,0-2.295-0.104-3.064-0.313
	C250.29,27.884,249.302,27.459,248.098,26.816z"/>
<polygon points="305.615,6.5 307.646,3.339 309.665,6.5 311.787,6.5 307.659,0 303.523,6.5 "/>
<polygon points="300.462,14.521 304.605,8.075 302.518,8.075 298.406,14.521 "/>
<polygon points="316.882,14.521 312.789,8.075 310.673,8.075 314.792,14.521 "/>
<path d="M266.298,14.386v-0.337c-0.104,0.116-0.288,0.22-0.546,0.309c-0.257,0.089-0.52,0.131-0.792,0.131
	c-0.782,0-1.393-0.246-1.839-0.736c-0.448-0.495-0.667-1.18-0.667-2.062c0-0.88,0.256-1.598,0.765-2.15
	c0.515-0.553,1.152-0.829,1.92-0.829c0.43,0,0.817,0.085,1.159,0.259V6.737l1.306-0.311v7.959H266.298z M266.298,10.147
	c-0.278-0.223-0.571-0.333-0.872-0.333c-0.518,0-0.916,0.158-1.199,0.475c-0.28,0.318-0.417,0.773-0.417,1.364
	c0,1.16,0.557,1.739,1.671,1.739c0.126,0,0.277-0.038,0.462-0.111c0.179-0.074,0.301-0.149,0.355-0.226V10.147z"/>
<path d="M273.871,12h-3.974c0.022,0.445,0.173,0.787,0.455,1.035c0.276,0.244,0.659,0.367,1.131,0.367
	c0.595,0,1.049-0.154,1.357-0.462l0.504,0.995c-0.463,0.371-1.144,0.555-2.048,0.555c-0.854,0-1.525-0.249-2.019-0.745
	c-0.491-0.5-0.74-1.192-0.74-2.082c0-0.879,0.272-1.589,0.81-2.135c0.55-0.545,1.197-0.815,1.959-0.815
	c0.806,0,1.453,0.238,1.942,0.723c0.488,0.483,0.736,1.095,0.736,1.841C273.985,11.436,273.946,11.675,273.871,12z M269.938,11.021
	h2.738c-0.091-0.814-0.537-1.223-1.348-1.223C270.584,9.798,270.12,10.207,269.938,11.021z"/>
<path d="M278.125,13.832c-0.115,0.192-0.326,0.352-0.616,0.474c-0.293,0.123-0.603,0.184-0.918,0.184
	c-0.604,0-1.071-0.148-1.414-0.447c-0.345-0.3-0.515-0.73-0.515-1.279c0-0.646,0.238-1.149,0.723-1.515
	c0.482-0.364,1.174-0.547,2.064-0.547c0.152,0,0.329,0.027,0.542,0.08c0-0.655-0.414-0.985-1.251-0.985
	c-0.486,0-0.888,0.083-1.221,0.245l-0.282-1.01c0.448-0.213,0.982-0.321,1.597-0.321c0.853,0,1.472,0.192,1.869,0.58
	c0.395,0.385,0.586,1.118,0.586,2.199v1.191c0,0.739,0.157,1.206,0.451,1.396c-0.108,0.19-0.224,0.308-0.351,0.347
	c-0.136,0.043-0.286,0.065-0.461,0.065c-0.187,0-0.349-0.067-0.501-0.209C278.279,14.143,278.178,13.993,278.125,13.832z
	 M278.001,11.764c-0.226-0.044-0.389-0.065-0.502-0.065c-1.028,0-1.536,0.333-1.536,1.008c0,0.5,0.287,0.749,0.868,0.749
	c0.776,0,1.17-0.391,1.17-1.169V11.764z"/>
<path d="M280.921,6.737l1.302-0.311v6.263c0,0.689,0.207,1.096,0.615,1.229c-0.202,0.379-0.546,0.571-1.032,0.571
	c-0.589,0-0.885-0.406-0.885-1.227V6.737z"/>
<path d="M288.817,12h-3.98c0.024,0.445,0.176,0.787,0.456,1.035c0.281,0.244,0.66,0.367,1.138,0.367
	c0.588,0,1.043-0.154,1.347-0.462l0.511,0.995c-0.462,0.371-1.146,0.555-2.052,0.555c-0.849,0-1.523-0.249-2.016-0.745
	c-0.497-0.5-0.742-1.192-0.742-2.082c0-0.879,0.272-1.589,0.812-2.135c0.547-0.545,1.199-0.815,1.952-0.815
	c0.813,0,1.459,0.238,1.948,0.723c0.491,0.483,0.734,1.095,0.734,1.841C288.924,11.436,288.89,11.675,288.817,12z M284.881,11.021
	h2.734c-0.087-0.814-0.537-1.223-1.347-1.223C285.528,9.798,285.063,10.207,284.881,11.021z"/>
<path d="M293.187,10.025c-0.233-0.151-0.488-0.228-0.765-0.228c-0.305,0-0.57,0.137-0.806,0.413
	c-0.236,0.272-0.347,0.607-0.347,1.002v3.174h-1.305V8.813h1.305v0.51c0.362-0.409,0.845-0.611,1.449-0.611
	c0.441,0,0.783,0.066,1.017,0.203L293.187,10.025z"/>
<path d="M294.173,14.028l0.463-1.037c0.393,0.309,0.827,0.464,1.314,0.464c0.513,0,0.763-0.18,0.763-0.539
	c0-0.215-0.076-0.388-0.229-0.521c-0.152-0.135-0.445-0.296-0.893-0.48c-0.956-0.397-1.438-0.957-1.438-1.677
	c0-0.479,0.185-0.855,0.55-1.123c0.371-0.27,0.84-0.402,1.41-0.402c0.585,0,1.125,0.13,1.634,0.388l-0.37,1.009
	c-0.284-0.242-0.679-0.361-1.187-0.361c-0.453,0-0.679,0.18-0.679,0.54c0,0.143,0.071,0.27,0.217,0.384
	c0.153,0.116,0.468,0.269,0.96,0.462c0.49,0.19,0.841,0.426,1.055,0.698c0.214,0.275,0.319,0.605,0.319,0.995
	c0,0.515-0.188,0.923-0.571,1.218c-0.384,0.299-0.901,0.446-1.565,0.446c-0.374,0-0.666-0.029-0.889-0.091
	C294.809,14.34,294.528,14.215,294.173,14.028z"/>
<path d="M313.792,7.959V3.348h-0.725V2.258h2.075v5.701H313.792z M314.484,0.048c0.208,0,0.389,0.075,0.542,0.226
	c0.148,0.151,0.228,0.333,0.228,0.548c0,0.211-0.079,0.392-0.228,0.542c-0.153,0.151-0.334,0.228-0.542,0.228
	c-0.216,0-0.396-0.076-0.548-0.228c-0.154-0.15-0.23-0.331-0.23-0.542c0-0.216,0.076-0.397,0.23-0.548
	C314.087,0.123,314.268,0.048,314.484,0.048z"/>
<path d="M319.983,3.497c-0.234-0.157-0.5-0.233-0.78-0.233c-0.312,0-0.585,0.139-0.821,0.418c-0.241,0.283-0.363,0.625-0.363,1.03
	v3.247h-1.332V2.258h1.332v0.52c0.378-0.419,0.867-0.629,1.484-0.629c0.453,0,0.806,0.07,1.048,0.209L319.983,3.497z"/>
</svg>
