<?xml version="1.0" encoding="utf-8"?>
<!-- Generator: Adobe Illustrator 15.1.0, SVG Export Plug-In  -->
<!DOCTYPE svg PUBLIC "-//W3C//DTD SVG 1.1//EN" "http://www.w3.org/Graphics/SVG/1.1/DTD/svg11.dtd" [
	<!ENTITY ns_flows "http://ns.adobe.com/Flows/1.0/">
]>
<svg version="1.1"
	 xmlns="http://www.w3.org/2000/svg" xmlns:xlink="http://www.w3.org/1999/xlink" xmlns:a="http://ns.adobe.com/AdobeSVGViewerExtensions/3.0/"
	 x="0px" y="0px" width="519px" height="64px" viewBox="-1.257 -1.814 519 64" enable-background="new -1.257 -1.814 519 64"
	 xml:space="preserve">
<defs>
</defs>
<polygon fill="#6699CC" points="458.86,24.162 466.406,12.412 473.913,24.162 481.807,24.162 466.463,0 451.073,24.162 "/>
<polygon fill="#6699CC" points="439.708,53.984 455.096,30.024 447.338,30.024 432.076,53.984 "/>
<polygon fill="#6699CC" points="500.746,53.984 485.53,30.024 477.658,30.024 492.967,53.984 "/>
<path fill="#6699CC" d="M312.705,53.484v-1.257c-0.4,0.439-1.077,0.822-2.031,1.151c-0.955,0.329-1.94,0.493-2.959,0.493
	c-2.888,0-5.16-0.915-6.817-2.746c-1.657-1.831-2.485-4.384-2.485-7.659s0.951-5.94,2.852-7.997
	c1.902-2.056,4.284-3.084,7.146-3.084c1.572,0,3.004,0.323,4.293,0.967v-8.297l4.834-1.16v29.589H312.705z M312.705,37.722
	c-1.032-0.825-2.108-1.238-3.23-1.238c-1.934,0-3.423,0.59-4.467,1.77s-1.567,2.872-1.567,5.077c0,4.307,2.076,6.459,6.228,6.459
	c0.464,0,1.035-0.139,1.712-0.416c0.676-0.277,1.118-0.558,1.325-0.841V37.722z"/>
<path fill="#6699CC" d="M340.863,44.607h-14.795c0.09,1.65,0.657,2.934,1.702,3.849c1.044,0.916,2.45,1.373,4.216,1.373
	c2.205,0,3.88-0.573,5.028-1.721l1.876,3.694c-1.702,1.38-4.242,2.069-7.62,2.069c-3.159,0-5.657-0.925-7.494-2.775
	c-1.837-1.85-2.756-4.432-2.756-7.745c0-3.262,1.008-5.905,3.026-7.929c2.018-2.024,4.438-3.037,7.262-3.037
	c3.004,0,5.415,0.896,7.233,2.688c1.818,1.792,2.727,4.074,2.727,6.846C341.27,42.512,341.134,43.408,340.863,44.607z
	 M326.243,40.971h10.172c-0.335-3.03-2.011-4.545-5.028-4.545C328.627,36.426,326.913,37.941,326.243,40.971z"/>
<path fill="#6699CC" d="M356.664,51.415c-0.438,0.722-1.203,1.312-2.292,1.77c-1.09,0.458-2.228,0.687-3.413,0.687
	c-2.231,0-3.984-0.558-5.261-1.673s-1.915-2.698-1.915-4.748c0-2.398,0.899-4.274,2.698-5.628c1.799-1.354,4.354-2.03,7.668-2.03
	c0.567,0,1.238,0.097,2.011,0.29c0-2.437-1.541-3.655-4.622-3.655c-1.818,0-3.339,0.303-4.564,0.909l-1.044-3.752
	c1.663-0.799,3.642-1.199,5.937-1.199c3.159,0,5.473,0.719,6.943,2.156c1.47,1.438,2.205,4.162,2.205,8.171v4.429
	c0,2.759,0.554,4.493,1.663,5.202c-0.4,0.696-0.845,1.125-1.334,1.286c-0.49,0.161-1.051,0.242-1.683,0.242
	c-0.696,0-1.322-0.258-1.876-0.773S356.856,52.021,356.664,51.415z M356.199,43.737c-0.825-0.167-1.444-0.251-1.856-0.251
	c-3.816,0-5.725,1.25-5.725,3.752c0,1.856,1.076,2.785,3.229,2.785c2.901,0,4.352-1.45,4.352-4.351V43.737z"/>
<path fill="#6699CC" d="M367.068,25.055l4.834-1.16v23.285c0,2.553,0.761,4.074,2.282,4.564c-0.748,1.418-2.024,2.127-3.829,2.127
	c-2.192,0-3.288-1.521-3.288-4.564V25.055z"/>
<path fill="#6699CC" d="M396.406,44.607h-14.795c0.09,1.65,0.658,2.934,1.702,3.849c1.044,0.916,2.45,1.373,4.216,1.373
	c2.204,0,3.88-0.573,5.028-1.721l1.875,3.694c-1.702,1.38-4.242,2.069-7.62,2.069c-3.159,0-5.657-0.925-7.494-2.775
	c-1.837-1.85-2.756-4.432-2.756-7.745c0-3.262,1.009-5.905,3.027-7.929c2.017-2.024,4.438-3.037,7.262-3.037
	c3.004,0,5.415,0.896,7.233,2.688c1.818,1.792,2.727,4.074,2.727,6.846C396.813,42.512,396.677,43.408,396.406,44.607z
	 M381.786,40.971h10.173c-0.335-3.03-2.012-4.545-5.029-4.545C384.17,36.426,382.456,37.941,381.786,40.971z"/>
<path fill="#6699CC" d="M412.651,37.277c-0.864-0.567-1.812-0.851-2.843-0.851c-1.122,0-2.118,0.51-2.988,1.528
	c-0.87,1.019-1.305,2.263-1.305,3.733v11.797h-4.835V32.771h4.835v1.896c1.354-1.521,3.152-2.282,5.396-2.282
	c1.65,0,2.914,0.251,3.791,0.754L412.651,37.277z"/>
<path fill="#6699CC" d="M416.326,52.149l1.722-3.849c1.444,1.148,3.075,1.721,4.893,1.721c1.882,0,2.824-0.67,2.824-2.011
	c0-0.786-0.284-1.431-0.851-1.934c-0.567-0.502-1.67-1.096-3.307-1.779c-3.571-1.482-5.357-3.558-5.357-6.227
	c0-1.792,0.684-3.188,2.05-4.187c1.367-0.999,3.114-1.499,5.241-1.499c2.153,0,4.177,0.483,6.072,1.451l-1.392,3.752
	c-1.058-0.903-2.527-1.354-4.409-1.354c-1.689,0-2.534,0.67-2.534,2.011c0,0.529,0.277,1.005,0.832,1.431
	c0.554,0.425,1.74,0.996,3.559,1.712c1.818,0.715,3.126,1.583,3.926,2.601c0.799,1.019,1.199,2.25,1.199,3.694
	c0,1.921-0.712,3.433-2.137,4.535c-1.425,1.103-3.362,1.654-5.812,1.654c-1.379,0-2.485-0.113-3.317-0.339
	C418.695,53.307,417.628,52.846,416.326,52.149z"/>
<path fill="#6699CC" d="M489.262,29.587V12.45h-2.711V8.393h7.718v21.194H489.262z M491.814,0.181c0.792,0,1.467,0.28,2.028,0.841
	c0.561,0.561,0.841,1.236,0.841,2.028c0,0.792-0.281,1.468-0.841,2.028c-0.561,0.561-1.237,0.841-2.028,0.841
	s-1.468-0.28-2.029-0.841c-0.561-0.561-0.841-1.236-0.841-2.028c0-0.792,0.28-1.467,0.841-2.028
	C490.347,0.461,491.023,0.181,491.814,0.181z"/>
<path fill="#6699CC" d="M512.276,13.004c-0.884-0.58-1.854-0.871-2.909-0.871c-1.148,0-2.167,0.521-3.058,1.563
	c-0.891,1.042-1.336,2.315-1.336,3.819v12.071h-4.947V8.393h4.947v1.939c1.385-1.557,3.226-2.335,5.521-2.335
	c1.688,0,2.981,0.257,3.878,0.772L512.276,13.004z"/>
<path fill="#6699CC" d="M0,43.095c0-3.159,0.912-5.731,2.736-7.717c1.825-1.985,4.232-2.979,7.224-2.979
	c3.146,0,5.589,0.955,7.33,2.863s2.611,4.52,2.611,7.833c0,3.301-0.887,5.925-2.659,7.872c-1.773,1.947-4.2,2.92-7.282,2.92
	c-3.146,0-5.593-0.983-7.34-2.949C0.873,48.972,0,46.357,0,43.095z M5.028,43.095c0,4.564,1.644,6.847,4.932,6.847
	c1.508,0,2.704-0.593,3.587-1.779c0.883-1.187,1.325-2.875,1.325-5.067c0-4.5-1.638-6.75-4.913-6.75
	c-1.509,0-2.708,0.593-3.598,1.779C5.473,39.311,5.028,40.968,5.028,43.095z"/>
<path fill="#6699CC" d="M28.218,52.979v8.645h-4.835V32.787h4.835v1.393c1.211-1.187,2.701-1.78,4.468-1.78
	c6.602,0,9.902,3.636,9.902,10.909c0,3.391-0.913,6.002-2.737,7.833c-1.825,1.831-4.316,2.746-7.475,2.746
	C30.855,53.887,29.469,53.584,28.218,52.979z M28.218,37.854v10.889c0.876,0.709,1.901,1.063,3.075,1.063
	c2.23,0,3.833-0.532,4.806-1.595c0.973-1.064,1.46-2.743,1.46-5.039c0-2.45-0.483-4.174-1.45-5.173
	c-0.967-1-2.566-1.499-4.797-1.499C30.152,36.5,29.121,36.951,28.218,37.854z"/>
<path fill="#6699CC" d="M65.333,44.623H50.538c0.09,1.65,0.658,2.934,1.702,3.849c1.044,0.916,2.449,1.374,4.216,1.374
	c2.205,0,3.881-0.574,5.028-1.722l1.876,3.694c-1.702,1.38-4.242,2.069-7.62,2.069c-3.159,0-5.657-0.925-7.495-2.775
	c-1.837-1.85-2.756-4.432-2.756-7.746c0-3.262,1.009-5.905,3.027-7.93c2.018-2.024,4.438-3.037,7.262-3.037
	c3.004,0,5.416,0.896,7.233,2.688c1.818,1.792,2.727,4.075,2.727,6.847C65.739,42.528,65.604,43.424,65.333,44.623z M50.711,40.987
	h10.173c-0.335-3.03-2.011-4.545-5.028-4.545C53.097,36.442,51.382,37.957,50.711,40.987z"/>
<path fill="#6699CC" d="M82.934,53.5V41.528c0-1.766-0.339-3.056-1.016-3.868c-0.677-0.812-1.783-1.218-3.317-1.218
	c-0.709,0-1.467,0.2-2.272,0.6c-0.806,0.4-1.435,0.896-1.886,1.489V53.5h-4.835V32.787h3.481l0.89,1.934
	c1.315-1.547,3.256-2.321,5.822-2.321c2.462,0,4.406,0.738,5.831,2.215s2.137,3.536,2.137,6.179V53.5H82.934z"/>
<path fill="#6699CC" d="M112.699,26.675l-2.069,4.158c-1.122-1.122-2.927-1.683-5.416-1.683c-2.36,0-4.294,0.99-5.802,2.969
	c-1.509,1.979-2.263,4.484-2.263,7.514c0,3.03,0.699,5.435,2.098,7.214s3.265,2.669,5.599,2.669c2.669,0,4.758-0.954,6.267-2.862
	l2.34,4.062c-2.05,2.179-5.055,3.269-9.013,3.269s-7.034-1.302-9.226-3.907s-3.288-6.157-3.288-10.657
	c0-4.19,1.215-7.694,3.646-10.512s5.542-4.226,9.332-4.226C108.154,24.683,110.751,25.347,112.699,26.675z"/>
<path fill="#6699CC" d="M115.871,43.095c0-3.159,0.912-5.731,2.736-7.717c1.825-1.985,4.232-2.979,7.224-2.979
	c3.146,0,5.589,0.955,7.33,2.863s2.611,4.52,2.611,7.833c0,3.301-0.887,5.925-2.659,7.872c-1.773,1.947-4.2,2.92-7.282,2.92
	c-3.146,0-5.593-0.983-7.34-2.949C116.744,48.972,115.871,46.357,115.871,43.095z M120.899,43.095c0,4.564,1.644,6.847,4.932,6.847
	c1.508,0,2.704-0.593,3.587-1.779c0.883-1.187,1.325-2.875,1.325-5.067c0-4.5-1.638-6.75-4.913-6.75
	c-1.509,0-2.708,0.593-3.598,1.779C121.344,39.311,120.899,40.968,120.899,43.095z"/>
<path fill="#6699CC" d="M163.623,53.5V40.523c0-2.721-1.219-4.081-3.656-4.081c-0.722,0-1.418,0.213-2.088,0.638
	c-0.671,0.426-1.141,0.916-1.412,1.47V53.5h-4.835V39.769c0-1.019-0.316-1.828-0.948-2.427c-0.632-0.6-1.522-0.899-2.669-0.899
	c-0.606,0-1.267,0.226-1.982,0.677c-0.715,0.452-1.234,0.948-1.557,1.489V53.5h-4.835V32.787h3.327l0.986,1.818
	c1.341-1.47,3.075-2.205,5.203-2.205c2.747,0,4.816,0.748,6.208,2.244c0.606-0.683,1.451-1.228,2.534-1.634s2.167-0.609,3.25-0.609
	c2.308,0,4.103,0.661,5.386,1.983c1.283,1.322,1.924,3.136,1.924,5.444V53.5H163.623z"/>
<path fill="#6699CC" d="M197.663,53.5V40.523c0-2.721-1.219-4.081-3.656-4.081c-0.722,0-1.418,0.213-2.088,0.638
	c-0.671,0.426-1.141,0.916-1.412,1.47V53.5h-4.835V39.769c0-1.019-0.316-1.828-0.948-2.427c-0.632-0.6-1.522-0.899-2.669-0.899
	c-0.606,0-1.267,0.226-1.982,0.677c-0.715,0.452-1.234,0.948-1.557,1.489V53.5h-4.835V32.787h3.327l0.986,1.818
	c1.341-1.47,3.075-2.205,5.203-2.205c2.747,0,4.816,0.748,6.208,2.244c0.606-0.683,1.451-1.228,2.534-1.634s2.167-0.609,3.25-0.609
	c2.308,0,4.103,0.661,5.386,1.983c1.283,1.322,1.924,3.136,1.924,5.444V53.5H197.663z"/>
<path fill="#6699CC" d="M226.21,44.623h-14.796c0.09,1.65,0.658,2.934,1.702,3.849c1.044,0.916,2.449,1.374,4.216,1.374
	c2.205,0,3.881-0.574,5.028-1.722l1.876,3.694c-1.702,1.38-4.242,2.069-7.62,2.069c-3.159,0-5.657-0.925-7.495-2.775
	c-1.837-1.85-2.756-4.432-2.756-7.746c0-3.262,1.009-5.905,3.027-7.93c2.018-2.024,4.438-3.037,7.262-3.037
	c3.004,0,5.416,0.896,7.233,2.688c1.818,1.792,2.727,4.075,2.727,6.847C226.616,42.528,226.481,43.424,226.21,44.623z
	 M211.588,40.987h10.173c-0.335-3.03-2.011-4.545-5.028-4.545C213.974,36.442,212.259,37.957,211.588,40.987z"/>
<path fill="#6699CC" d="M243.811,53.5V41.528c0-1.766-0.339-3.056-1.016-3.868c-0.677-0.812-1.783-1.218-3.317-1.218
	c-0.709,0-1.467,0.2-2.272,0.6c-0.806,0.4-1.435,0.896-1.886,1.489V53.5h-4.835V32.787h3.481l0.89,1.934
	c1.315-1.547,3.256-2.321,5.822-2.321c2.462,0,4.406,0.738,5.831,2.215s2.137,3.536,2.137,6.179V53.5H243.811z"/>
<path fill="#6699CC" d="M254.603,36.674h-2.398v-3.887h2.398V28.57l4.835-1.779v5.996h5.686v3.887h-5.686v9.071
	c0,1.483,0.232,2.531,0.696,3.143c0.464,0.613,1.276,0.918,2.437,0.918c1.16,0,2.244-0.315,3.249-0.947v4.448
	c-1.122,0.387-2.721,0.58-4.796,0.58c-2.063,0-3.649-0.583-4.758-1.75c-1.109-1.167-1.663-2.827-1.663-4.98V36.674z"/>
<path fill="#6699CC" d="M268.295,52.166l1.721-3.849c1.444,1.147,3.075,1.721,4.894,1.721c1.882,0,2.824-0.67,2.824-2.012
	c0-0.786-0.284-1.431-0.851-1.934c-0.567-0.502-1.67-1.096-3.307-1.779c-3.572-1.482-5.357-3.559-5.357-6.228
	c0-1.792,0.683-3.188,2.05-4.188c1.367-0.999,3.114-1.499,5.242-1.499c2.153,0,4.177,0.484,6.073,1.451l-1.393,3.752
	c-1.057-0.902-2.527-1.354-4.41-1.354c-1.689,0-2.534,0.67-2.534,2.011c0,0.529,0.277,1.006,0.832,1.431
	c0.555,0.426,1.741,0.996,3.559,1.712c1.818,0.716,3.126,1.583,3.926,2.601c0.799,1.019,1.199,2.25,1.199,3.694
	c0,1.921-0.712,3.433-2.137,4.536c-1.425,1.102-3.362,1.653-5.812,1.653c-1.38,0-2.485-0.113-3.317-0.338
	C270.665,53.323,269.598,52.862,268.295,52.166z"/>
<path fill="#6699CC" d="M287.385,50.967c0-0.967,0.338-1.789,1.016-2.466c0.677-0.677,1.499-1.016,2.466-1.016
	c0.967,0,1.789,0.338,2.466,1.016c0.677,0.677,1.016,1.499,1.016,2.466c0,0.967-0.338,1.792-1.016,2.476
	c-0.677,0.684-1.499,1.025-2.466,1.025c-0.967,0-1.789-0.341-2.466-1.025C287.723,52.759,287.385,51.934,287.385,50.967z"/>
</svg>
